<?xml version="1.0" encoding="UTF-8"?>
<svg viewBox="0 0 216 163" version="1.1" xmlns="http://www.w3.org/2000/svg" xmlns:xlink="http://www.w3.org/1999/xlink">
    <defs>
        <linearGradient id="linear" x1="0.5" y1="0" x2="0.5" y2="1" gradientTransform="rotate(-75)">
            <stop offset="0%" stop-color="#fecaca"/>
            <stop offset="7.33%" stop-color="#fd8d91"/>
            <stop offset="22%" stop-color="#be123c"/>
            <stop offset="27.67%" stop-color="#c81938"/>
            <stop offset="39%" stop-color="#dc2626"/>
            <stop offset="45%" stop-color="#d02323"/>
            <stop offset="57%" stop-color="#b91c1c"/>
            <stop offset="63.33%" stop-color="#b0192b"/>
            <stop offset="76%" stop-color="#9f1239"/>
            <stop offset="82%" stop-color="#94182f"/>
            <stop offset="94%" stop-color="#7f1d1d"/>
        </linearGradient>
        <radialGradient id="radial" gradientTransform="translate(-1 -0.5) scale(2, 2)">
            <stop offset="19%" stop-color="#b91c1c"/>
            <stop offset="39.25%" stop-color="rgba(183, 36, 56, 0.75)"/>
            <stop offset="59.5%" stop-color="rgba(181, 43, 72, 0.5)"/>
            <stop offset="100%" stop-color="rgba(177, 56, 94, 0)"/>
        </radialGradient>
    </defs>
    <g stroke="none" stroke-width="1" fill="url(#linear)">
        <path
            d="M56.0808567,0.657957623 L160.727797,0.797009333 C166.030727,0.804055706 171.113782,2.91684329 174.859293,6.67080949 L209.639066,41.5290953 C217.440741,49.3483821 217.426464,62.0116736 209.607177,69.8133486 L209.568014,69.8523152 L209.568014,69.8523152 L122.024009,156.71791 C114.245636,164.436006 101.704966,164.457918 93.8996686,156.767052 L6.22167736,70.3744789 C-1.64627024,62.6218807 -1.73977943,49.9589264 6.01281875,42.0909788 L6.18148749,41.9218329 L6.18148749,41.9218329 L41.9767708,6.45147331 C45.7286591,2.73364191 50.798917,0.65093914 56.0808567,0.657957623 Z M138.096,38.024 L127.224,38.888 L127.224,44.792 L115.344,45.944 L115.632,54.152 L127.224,54.152 L127.224,79.568 L114.048,79.568 L114.048,89 L148.968,89 L149.832,79.568 L138.096,79.568 L138.096,38.024 Z M90.576,46.664 L80.424,46.664 L80.424,60.056 L67.752,60.056 L67.752,69.56 L80.424,69.56 L80.424,83.096 L90.576,83.096 L90.576,69.56 L103.248,69.56 L103.248,60.056 L90.576,60.056 L90.576,46.664 Z"
            fill-rule="nonzero">
        </path>
    </g>
    <g stroke="none" stroke-width="1" fill="url(#radial)">
        <path
            d="M56.0808567,0.657957623 L160.727797,0.797009333 C166.030727,0.804055706 171.113782,2.91684329 174.859293,6.67080949 L209.639066,41.5290953 C217.440741,49.3483821 217.426464,62.0116736 209.607177,69.8133486 L209.568014,69.8523152 L209.568014,69.8523152 L122.024009,156.71791 C114.245636,164.436006 101.704966,164.457918 93.8996686,156.767052 L6.22167736,70.3744789 C-1.64627024,62.6218807 -1.73977943,49.9589264 6.01281875,42.0909788 L6.18148749,41.9218329 L6.18148749,41.9218329 L41.9767708,6.45147331 C45.7286591,2.73364191 50.798917,0.65093914 56.0808567,0.657957623 Z M138.096,38.024 L127.224,38.888 L127.224,44.792 L115.344,45.944 L115.632,54.152 L127.224,54.152 L127.224,79.568 L114.048,79.568 L114.048,89 L148.968,89 L149.832,79.568 L138.096,79.568 L138.096,38.024 Z M90.576,46.664 L80.424,46.664 L80.424,60.056 L67.752,60.056 L67.752,69.56 L80.424,69.56 L80.424,83.096 L90.576,83.096 L90.576,69.56 L103.248,69.56 L103.248,60.056 L90.576,60.056 L90.576,46.664 Z"
            fill-rule="nonzero">
        </path>
    </g>
</svg>